<svg viewBox="0 0 21 21" xmlns="http://www.w3.org/2000/svg">
<path d="M15.9477 6.266C16.703 6.89057 18.7749 8.60374 18.4373 9.8064C18.2812 10.3465 17.6608 10.5195 17.2009 10.6883C16.1417 11.0723 15.053 11.3761 13.9474 11.5998C13.0527 11.7812 11.1412 12.1778 11.4956 10.5954C11.6348 9.98353 12.1286 9.46446 12.5253 9.0045C13.3397 8.04665 14.1711 7.03383 15.1543 6.24896C15.2344 6.18562 15.3315 6.16877 15.4159 6.18148C15.5805 6.11409 15.7788 6.12256 15.9477 6.266Z" fill="currentColor"/>
<path d="M14.8336 18.8917C14.1711 18.3558 13.7027 17.516 13.2976 16.7818C12.9008 16.0729 12.2764 15.136 12.1709 14.3133C11.9557 12.6211 14.4073 13.6381 15.1121 13.8828C16.0489 14.212 18.5597 14.5749 18.2812 16.0391C18.0491 17.2333 16.6101 18.6892 15.4075 18.8749C15.3949 18.8791 15.378 18.8749 15.3611 18.8749C15.3569 18.8791 15.3527 18.8833 15.3485 18.8875C15.3147 18.9043 15.2768 18.9255 15.2388 18.9423C15.0952 19.0184 14.956 18.9888 14.8336 18.8917Z" fill="currentColor"/>
<path d="M9.3521 14.5369C10.6856 13.9841 10.8079 15.4736 10.7995 16.3767C10.7869 17.4528 10.7531 18.533 10.6729 19.6048C10.6433 20.0395 10.6603 20.5628 10.2467 20.8371C9.73611 21.1747 8.75294 20.9088 8.2254 20.7442C8.20855 20.7358 8.19161 20.7274 8.17476 20.7232C7.065 20.5291 5.71043 20.0185 5.5796 18.9931C5.5669 18.8749 5.61339 18.7694 5.68511 18.6892C5.7189 18.6259 5.7526 18.5669 5.79062 18.512C5.95523 18.2841 6.14507 18.0816 6.33501 17.8748C6.65567 17.398 7.00175 16.9381 7.36882 16.4949C7.9005 15.8535 8.55454 14.866 9.3521 14.5369Z" fill="currentColor"/>
<path d="M9.54622 9.91192C7.60087 8.31264 5.70615 5.83561 4.72711 3.54426C3.98018 1.80145 5.87914 0.73809 7.34336 0.257044C9.31827 -0.39285 10.1031 0.17262 10.3014 2.14753C10.4661 3.84808 10.542 5.56134 10.5293 7.27036C10.5251 7.99198 10.7276 9.15661 10.3057 9.80651C10.3732 10.0724 9.9723 10.2622 9.74444 10.0808C9.71065 10.0555 9.67696 10.0217 9.63893 9.99211C9.60524 9.97103 9.57568 9.94571 9.54622 9.91192Z" fill="currentColor"/>
<path d="M9.33523 12.389C9.49138 13.081 9.00186 13.3595 8.42801 13.6212C7.40682 14.0812 6.33498 14.4483 5.25891 14.7521C4.63434 14.9251 3.67648 15.3387 3.07308 14.8787C2.61735 14.5327 2.5878 13.8111 2.54563 13.2878C2.45283 12.119 2.63006 9.32963 4.25042 9.21151C5.04376 9.15663 6.0354 9.86554 6.68529 10.2369C7.55035 10.7349 8.47874 11.3045 9.12431 12.0853C9.22126 12.14 9.30145 12.2371 9.33523 12.389Z" fill="currentColor"/>
</svg>
