<?xml version="1.0" encoding="UTF-8"?><svg id="Layer_1" xmlns="http://www.w3.org/2000/svg" viewBox="0 0 449.55 171.67"><defs><style>.cls-1{fill-rule:evenodd;}.cls-2{fill:#ff1a1a;}</style></defs><path class="cls-2" d="M443.97,120.04c-1.07-1.17-2.57-2.34-4.96-3.77-.34-.19-.75-.45-1.12-.67-1.98-1.19-4.38-2.45-7.16-3.97-4.28-2.34-8.59-4.65-12.91-6.91l-7.65-4.06c-.4-.11-.8-.4-1.17-.58-1.48-.76-3.03-1.31-4.65-1.66-.56-.11-1.12-.16-1.69-.17-.37-.01-.73.01-1.09.06-1.57.24-2.92.92-4.05,2.04s-1.82,2.46-2.08,4.03c-.11.97-.08,1.96.11,2.92.37,2.04,1.29,4.05,2.23,5.82l4.09,7.66c2.27,4.32,4.58,8.61,6.94,12.89,1.52,2.79,2.79,5.18,3.97,7.16.23.37.48.78.68,1.12,1.44,2.38,2.6,3.88,3.77,4.95.77.74,1.68,1.3,2.68,1.64,1.05.35,2.17.47,3.26.36.56-.07,1.12-.17,1.67-.29.54-.14,1.08-.32,1.6-.52.57-.22,1.12-.47,1.64-.77,3.12-1.75,5.96-3.88,8.51-6.38,3.05-3,5.75-6.29,7.85-10.03.29-.53.55-1.08.76-1.65.2-.52.37-1.06.51-1.6.12-.56.22-1.11.28-1.67.11-1.11-.02-2.2-.37-3.26-.35-1.02-.9-1.91-1.64-2.68h0ZM386.34,106.48c-.92-1.3-2.13-2.2-3.64-2.71-1.51-.51-3.02-.52-4.54-.05-.35.11-.69.26-1.02.42-.51.26-.99.56-1.44.91-1.32.98-2.44,2.25-3.45,3.53-.26.33-.49.76-.8,1.04l-5.1,7.03c-2.9,3.93-5.75,7.88-8.58,11.88-1.85,2.59-3.44,4.77-4.7,6.7-.24.37-.49.78-.71,1.1-1.51,2.34-2.37,4.05-2.81,5.57-.33,1.02-.44,2.07-.31,3.14.14,1.1.51,2.15,1.09,3.1.31.48.63.93.99,1.38.77.88,1.62,1.67,2.57,2.36,3.53,2.45,7.38,4.22,11.45,5.58,3.39,1.12,6.87,1.79,10.44,1.99.6.03,1.21.02,1.81-.04.56-.05,1.11-.13,1.66-.23.55-.13,1.09-.29,1.63-.48,2.18-.77,3.67-2.24,4.46-4.41.59-1.47.97-3.34,1.23-6.11.02-.4.08-.87.12-1.3.2-2.3.29-5,.44-8.18.24-4.89.44-9.75.6-14.63l.32-8.67c.07-2.01.01-4.22-.54-6.21-.25-.96-.63-1.86-1.17-2.69h0ZM389.08,74.97c2.3-2.89,2.29-7.2,2.49-10.72.69-11.77,1.42-23.53,1.99-35.31.23-4.45.7-8.85.43-13.35-.22-3.71-.24-7.96-2.58-11.01-4.14-5.36-12.94-4.92-18.95-4.08-1.84.26-3.68.59-5.51,1.04-1.83.44-3.64.92-5.41,1.49-5.76,1.89-13.87,5.36-15.25,12-.77,3.76,1.07,7.59,2.49,11.03,1.72,4.15,4.08,7.89,6.23,11.81,5.67,10.33,11.46,20.59,17.23,30.86,1.72,3.06,3.6,6.95,6.93,8.54.22.1.44.18.67.26,1.49.57,3.12.68,4.68.31l.28-.06c1.43-.4,2.73-1.17,3.75-2.26.19-.17.36-.35.53-.54h0ZM445.89,61.61c-2.02-4.24-4.68-8.02-7.97-11.36-.43-.42-.88-.81-1.36-1.16-.44-.33-.9-.64-1.38-.93-.49-.27-1-.51-1.51-.72-1.03-.41-2.1-.58-3.2-.53-1.06.06-2.05.35-2.99.84-1.4.7-2.91,1.81-4.93,3.68-.28.28-.62.6-.94.88-1.66,1.56-3.51,3.5-5.71,5.74-3.4,3.43-6.74,6.89-10.07,10.38l-5.95,6.18c-1.09,1.13-2.08,2.35-2.96,3.64-.75,1.09-1.29,2.32-1.57,3.63-.17,1.01-.15,2.01.07,3l.03.13c.49,2.12,1.65,3.78,3.48,4.97s3.81,1.57,5.95,1.16c.32-.05.58-.1.74-.14l31.74-7.34c2.51-.58,5.04-1.11,7.29-2.41,1.51-.88,2.94-1.75,3.92-3.49.53-.97.84-2.01.94-3.12.49-4.32-1.77-9.24-3.59-13.03h0ZM363.99,100.61l7.35-1.7c.24-.05.48-.12.72-.19,2.11-.57,3.72-1.79,4.84-3.66,1.12-1.87,1.44-3.87.95-6l-.03-.13c-.24-.99-.66-1.9-1.25-2.73-.83-1.05-1.83-1.91-3-2.57-1.36-.78-2.79-1.44-4.26-1.97l-8.05-2.94c-4.52-1.68-9.04-3.32-13.6-4.91-2.95-1.05-5.46-1.97-7.64-2.64-.41-.13-.86-.26-1.23-.38-2.64-.81-4.48-1.15-6.05-1.15-1.06-.04-2.07.15-3.05.56-1.02.44-1.9,1.07-2.65,1.88-.37.42-.71.86-1.04,1.31-.63.97-1.15,1.99-1.55,3.08-1.5,4.45-2.24,9.02-2.2,13.72.03,4.22.15,9.62,2.47,13.29.56.94,1.3,1.76,2.2,2.39,1.65,1.14,3.32,1.29,5.06,1.42,2.59.18,5.1-.45,7.61-1.03l24.39-5.64h.02s0,0,0,0Z"/><path class="cls-1" d="M72.85,110.17l-3.72,8.18c-1.68,3.55-3.37,7.2-4.96,10.84-.51,1.12-1.02,2.26-1.54,3.42-7.08,15.76-15.49,34.46-33.82,38.44-8.86,1.96-22.25-.71-27.21-9.07-4.96-8.44,2.39-18.13,11.87-15.91,1.5.34,2.97,1.07,4.45,1.81,2.47,1.23,4.98,2.48,7.7,1.93,2.57-.44,4.17-2.31,6.2-4.71,2.21-2.58,3.75-5.51,4.61-8.8-.05-.1-.09-.21-.13-.31-.04-.1-.08-.21-.13-.31-2.31-4.31-4.32-8.16-6.01-11.37-1.1-2.1-2.05-3.92-2.86-5.43l-3.87-7.33c-2.83-5.37-3.3-6.26-4.55-8.57-2.76-5.2-5.65-10.33-8.68-15.38-3.29-5.51-6.65-11.64-3.9-18.13.52-1.26,1.24-2.38,2.18-3.36.94-.98,2.02-1.76,3.25-2.34,1.23-.58,2.53-.91,3.88-1,1.36-.09,2.68.07,3.98.48,5.71,1.73,8.23,7.16,10.6,12.24.43.91.85,1.82,1.28,2.69,3.81,7.55,7.53,15.11,11.26,22.66.33.75.83,1.78,1.43,3.02.54,1.11,1.17,2.4,1.84,3.83.35.74.68,1.43.99,2.05.39.79.72,1.49.96,2.04,1.73-4.31,3.48-8.6,5.23-12.89,1.75-4.29,3.5-8.58,5.23-12.89.05-.24.46-1.16,1.08-2.55.93-2.05,1.82-4.12,2.69-6.19,2.3-5.61,5.07-12.34,11.22-14.19,2.23-.65,4.45-.59,6.65.18s3.97,2.1,5.31,4c1.34,1.87,1.87,4,1.96,6.13.07,4.72-2.21,9.78-4.17,14.12-.48,1.06-.93,2.07-1.33,3.03l-.23.52c-.54,1.21-2.01,4.52-4.55,9.96-.92,1.95-1.8,3.91-2.69,5.88-.49,1.08-.97,2.18-1.48,3.28h0ZM259.95,126.97c-11.52,0-20.91-10.04-20.91-22.57s9.31-22.66,20.91-22.66,20.92,10.04,20.92,22.66c-.09,12.53-9.39,22.57-20.91,22.57h0ZM264.91,62.63c-10.1,0-19.32,4.53-25.88,11.91v-.27c-.04-1.5-.37-2.93-.98-4.3-.61-1.37-1.46-2.57-2.55-3.6-1.09-1.03-2.33-1.81-3.73-2.35-1.4-.53-2.85-.78-4.35-.74-1.5.04-2.93.37-4.3.98-1.37.61-2.57,1.46-3.6,2.55-1.03,1.09-1.81,2.33-2.35,3.73-.54,1.4-.78,2.85-.74,4.35v85.41c0,6.31,5.06,11.37,11.35,11.37s11.35-5.06,11.35-11.37v-26.66c6.56,7.29,15.69,11.91,25.88,11.91,20.3,0,36.78-18.4,36.78-41.32-.09-22.93-16.58-41.6-36.87-41.6h0ZM117.97,86.18c-3.6,2.93-5.91,6.66-6.91,11.2h38.64c-1.07-4.52-3.4-8.25-7-11.2-3.63-2.91-7.76-4.39-12.41-4.44-1.68,0-7.17.27-12.32,4.44h0ZM169.99,100.84c-.09,1.77-.53,5.06-2.83,7.46-2.49,2.58-5.85,3.2-7.8,3.2-8.11.05-16.22.07-24.33.09-8.1.02-16.22.05-24.33.09.71,2.22,2.13,5.6,5.32,8.71,1.95,1.87,3.81,2.94,4.61,3.38.97.62,4.34,2.4,8.51,2.4,4.43,0,8.33-1.42,12.15-3.38l.32-.17c2.65-1.37,5.38-2.78,8.27-3.3,2.84-.44,5.85.09,8.07,2.04,2.66,2.32,3.72,5.7,2.75,9.16-1.16,3.91-4.43,7.29-7.89,9.33-1.95,1.15-4.08,2.13-6.21,2.93-5.53,1.96-11.24,2.85-17.1,2.66-1.42,0-2.92,0-4.43-.17-1.58-.2-3.15-.5-4.7-.9-2.45-.53-4.82-1.33-7.09-2.4-2.27-1.01-4.43-2.22-6.47-3.64-2.03-1.46-3.92-3.09-5.67-4.89-1.74-1.82-3.3-3.77-4.7-5.86-4.78-7.29-7-16.27-6.56-24.98.36-8.53,3.19-17.06,8.33-24,.55-.81,1.15-1.58,1.81-2.31.26-.3.52-.59.76-.89,6.35-7.76,14.83-10.22,18.33-11.23l.19-.06c7.24-2.06,14.48-2.06,21.72,0,1.68.45,11.16,3.38,18.52,11.29.36.36,1.33,1.51,2.57,3.2,3.17,4.32,5.45,9.08,6.81,14.27v.05c.54,1.96,1.08,4.62,1.08,7.91h0ZM180.53,45.56c0-6.31,5.15-11.46,11.35-11.46s11.08,5.16,11.35,11.56v89.49c0,6.31-5.14,11.47-11.35,11.47-1.51,0-2.97-.29-4.37-.87s-2.63-1.41-3.7-2.49c-1.07-1.08-1.88-2.32-2.45-3.72s-.85-2.86-.83-4.38V45.57h0Z"/></svg>