<?xml version="1.0" encoding="UTF-8"?>
<svg id="Layer_1" data-name="Layer 1" xmlns="http://www.w3.org/2000/svg" viewBox="0 0 150 150">
  <defs>
    <style>
      .cls-1 {
        fill: #080b0b;
      }

      .cls-2 {
        fill: #ef6f37;
      }
    </style>
  </defs>
  <circle class="cls-2" cx="75" cy="75" r="75"/>
  <g>
    <path class="cls-1" d="M3.81,79.07l2.58-.78c.29,2.15.99,3.19,2.41,3.19,1.1,0,1.71-.7,1.71-1.77,0-.96-.41-1.68-1.36-2.49l-2.87-2.47c-1.16-.99-2.06-2.12-2.06-4.09,0-2.64,1.71-4.12,4.32-4.12s4.06,1.97,4.26,4.41l-2.09.78c-.23-1.74-.73-2.9-2.06-2.9-1.02,0-1.65.78-1.65,1.71,0,.58.23,1.13.84,1.68l2.96,2.73c1.19,1.1,2.38,2.38,2.38,4.53,0,2.87-1.89,4.29-4.64,4.29s-4.5-1.89-4.73-4.7Z"/>
    <path class="cls-1" d="M14.86,79.88c0-4.18,3.02-5.4,6.61-6.82v-1.19c0-2.03-.23-3.02-1.68-3.02-1.28,0-1.77.93-1.77,2.38v.84l-3.07-.12c.06-3.71,1.62-5.42,5.05-5.42s4.58,1.86,4.58,5.31v7.66c0,1.57.15,2.96.29,4.03h-2.84c-.12-.61-.32-1.68-.41-2.47-.41,1.31-1.48,2.7-3.39,2.7s-3.36-1.92-3.36-3.89ZM21.47,79.71v-4.76c-1.92,1.1-3.51,2.03-3.51,3.97,0,1.36.52,2.18,1.48,2.18.9,0,1.77-.96,2.03-1.39Z"/>
    <path class="cls-1" d="M27.27,66.77h3.1v1.65c1.1-1.04,2.47-1.89,4.09-1.89,2,0,2.52,1.8,2.52,3.42v13.58h-3.1v-12.68c0-1.19-.26-1.89-1.33-1.89-.7,0-1.48.46-2.18,1.04v13.52h-3.1v-16.77Z"/>
    <path class="cls-1" d="M39.39,76.96v-3.25c0-3.83.7-7.16,4.12-7.16,1.13,0,2.06.58,2.79,1.31v-7.8h3.1v23.5h-3.1v-1.07c-.73.78-1.6,1.31-2.7,1.31-2.84,0-4.21-1.86-4.21-6.82ZM46.29,80.7v-10.99c-.55-.38-1.22-.73-1.97-.73-1.45,0-1.83,1.6-1.83,3.51v4.73c0,2.35.23,4.12,1.89,4.12.58,0,1.25-.2,1.92-.64Z"/>
    <path class="cls-1" d="M52.53,60.04h3.1v23.5h-3.1v-23.5Z"/>
    <path class="cls-1" d="M58.3,77.59v-4.87c0-3.77,1.16-6.18,4.9-6.18s4.87,2.41,4.87,6.18v4.87c0,3.77-1.16,6.18-4.87,6.18s-4.9-2.41-4.9-6.18ZM64.97,77.8v-5.25c0-1.89,0-3.71-1.77-3.71s-1.8,1.83-1.8,3.71v5.25c0,1.88,0,3.68,1.8,3.68s1.77-1.8,1.77-3.68Z"/>
    <path class="cls-1" d="M71.46,79.77v-10.94h-1.77v-2.06h1.77v-4.9h3.1v4.9h2.7v2.06h-2.7v10.73c0,1.3.32,1.83,1.54,1.83.29,0,.75-.03,1.13-.09v2.29c-.78.12-1.36.17-2.15.17-2.64,0-3.63-1.57-3.63-4Z"/>
    <path class="cls-1" d="M84.77,79.07l2.58-.78c.29,2.15.99,3.19,2.41,3.19,1.1,0,1.71-.7,1.71-1.77,0-.96-.41-1.68-1.36-2.49l-2.87-2.47c-1.16-.99-2.06-2.12-2.06-4.09,0-2.64,1.71-4.12,4.32-4.12s4.06,1.97,4.26,4.41l-2.09.78c-.23-1.74-.73-2.9-2.06-2.9-1.02,0-1.65.78-1.65,1.71,0,.58.23,1.13.84,1.68l2.96,2.73c1.19,1.1,2.38,2.38,2.38,4.53,0,2.87-1.89,4.29-4.64,4.29s-4.5-1.89-4.73-4.7Z"/>
    <path class="cls-1" d="M97.01,79.77v-10.94h-1.77v-2.06h1.77v-4.9h3.1v4.9h2.7v2.06h-2.7v10.73c0,1.3.32,1.83,1.54,1.83.29,0,.75-.03,1.13-.09v2.29c-.78.12-1.36.17-2.15.17-2.64,0-3.63-1.57-3.63-4Z"/>
    <path class="cls-1" d="M104.7,80.35v-13.58h3.1v12.65c0,1.19.26,1.92,1.33,1.92.7,0,1.48-.46,2.17-1.04v-13.52h3.1v16.77h-3.1v-1.65c-1.1,1.04-2.46,1.89-4.09,1.89-2,0-2.52-1.8-2.52-3.42Z"/>
    <path class="cls-1" d="M116.96,76.96v-3.25c0-3.83.7-7.16,4.12-7.16,1.13,0,2.06.58,2.79,1.31v-7.8h3.1v23.5h-3.1v-1.07c-.73.78-1.6,1.31-2.7,1.31-2.84,0-4.21-1.86-4.21-6.82ZM123.87,80.7v-10.99c-.55-.38-1.22-.73-1.97-.73-1.45,0-1.83,1.6-1.83,3.51v4.73c0,2.35.23,4.12,1.89,4.12.58,0,1.25-.2,1.92-.64Z"/>
    <path class="cls-1" d="M130.01,61.03h3.1v3.25h-3.1v-3.25ZM130.01,66.77h3.1v16.77h-3.1v-16.77Z"/>
    <path class="cls-1" d="M135.87,77.59v-4.87c0-3.77,1.16-6.18,4.9-6.18s4.87,2.41,4.87,6.18v4.87c0,3.77-1.16,6.18-4.87,6.18s-4.9-2.41-4.9-6.18ZM142.54,77.8v-5.25c0-1.89,0-3.71-1.77-3.71s-1.8,1.83-1.8,3.71v5.25c0,1.88,0,3.68,1.8,3.68s1.77-1.8,1.77-3.68Z"/>
  </g>
</svg>